<svg
      xmlns="http://www.w3.org/2000/svg"
      width="129.507"
      height="41.437"
      version="1.1"
      viewBox="0 0 129.507 41.437"
      xmlSpace="preserve"
    >
      <defs>
        <clipPath clipPathUnits="userSpaceOnUse">
          <path d="M36.85 655.526V414.535h240.775v54.35a109.482 109.482 0 000 12.603v174.038H36.85z"></path>
        </clipPath>
        <clipPath clipPathUnits="userSpaceOnUse">
          <path d="M277.127 655.526v-103.27h31.324c8.625 8.953 18.802 16.467 30.241 22.207 15.677 7.868 32.615 11.843 49.66 11.844 11.755 0 23.559-1.891 35.04-5.7 17.674-5.862 32.892-15.768 44.971-28.351h118.409v103.27H277.127z"></path>
        </clipPath>
        <clipPath clipPathUnits="userSpaceOnUse">
          <path d="M277.127 552.751V188.669h35.091v205.924a109.797 109.797 0 00-9.774 10.542 110.962 110.962 0 00-12.907 19.709c-6.657 12.978-10.564 26.817-11.681 40.842-1.293 14.856.45 29.96 5.287 44.54 5.376 16.208 14.204 30.651 25.788 42.525h-31.804z"></path>
        </clipPath>
        <clipPath clipPathUnits="userSpaceOnUse">
          <path d="M467.884 552.751a111.669 111.669 0 0023.001-34.925h95.887v34.925H467.884zm-1.887-4.666l-.027.03.027-.03m.091-.098a2.944 2.944 0 01-.052.057l.052-.057m.054-.057c-.005.006-.01.013-.016.018l.016-.018m.026-.028a.664.664 0 01-.026.028l.026-.028m.097-.104a5.536 5.536 0 000 0m.051-.055l-.04.043.04-.043m.03-.032l-.03.032.03-.032m19.554-29.885h.001a107.08 107.08 0 00-.001 0"></path>
        </clipPath>
        <clipPath clipPathUnits="userSpaceOnUse">
          <path d="M490.678 518.321c6.758-16.027 9.798-33.674 8.423-51.55.613-.356.975-.882 1.185-1.323a3.461 3.461 0 00.702-1.325 2.02 2.02 0 00.049-.217 113.723 113.723 0 00-2.853-16.28l-.056-.22-.012-.051a111.761 111.761 0 00-1.073-3.921c-.37-1.266-.762-2.523-1.177-3.772a114.751 114.751 0 00-7.254-17.088 114.437 114.437 0 00-2.374-4.305s-.863-1.027-2.105-1.027c-.122 0-.25.011-.379.032a2.704 2.704 0 00-.25.057l-.061.017V36h103.329v482.321h-96.094zm-4.996 0a106.65 106.65 0 008.837-34.945 104.21 104.21 0 01-5.46 25.616c3.694-10.874 5.697-22.529 5.697-34.652 0-2.232-.067-4.443-.201-6.642l.012.002c.376 5.26.354 10.499-.048 15.676l.036-.429a106.638 106.638 0 01-8.872 35.374h-.001zm8.818-51.475l.003.001a.004.004 0 01-.003-.001m4.984-.762a2.851 2.851 0 010 0 13.88 13.88 0 000 0m.449-.296l-.001.001.001-.001z"></path>
        </clipPath>
        <clipPath clipPathUnits="userSpaceOnUse">
          <path d="M471.255 401.334a108.156 108.156 0 00-22.157-19.085v-193.58h26.27v-75.84h-26.27V36h34.843v381.25a3.086 3.086 0 00-.187.024 2.704 2.704 0 00-.25.057l-.325.093a109.54 109.54 0 00-11.924-16.09"></path>
        </clipPath>
        <clipPath clipPathUnits="userSpaceOnUse">
          <path d="M36.85 415.03V173.274h36.279v15.395h204.496V415.03H36.85zm38.394-209.806h75.839v-13.44H75.244v13.44z"></path>
        </clipPath>
        <clipPath clipPathUnits="userSpaceOnUse">
          <path d="M311.72 188.669h34.842v183.872c-13.08 5.312-24.849 12.955-34.842 22.526V188.669z"></path>
        </clipPath>
        <clipPath clipPathUnits="userSpaceOnUse">
          <path d="M422.418 369.634a110.716 110.716 0 00-7.664-2.181V188.669h34.842v193.905a110.439 110.439 0 00-27.178-12.94"></path>
        </clipPath>
        <clipPath clipPathUnits="userSpaceOnUse">
          <path d="M346.064 188.669h69.188v178.908a109.638 109.638 0 00-26.685-3.299c-11.757 0-23.561 1.89-35.043 5.699a113.13 113.13 0 00-7.46 2.767V188.669z"></path>
        </clipPath>
        <clipPath clipPathUnits="userSpaceOnUse">
          <path d="M36.85 173.769V36h68.803v76.829H73.129v60.94H36.85z"></path>
        </clipPath>
        <clipPath clipPathUnits="userSpaceOnUse">
          <path d="M105.155 36h344.441v76.829H105.155V36z"></path>
        </clipPath>
        <clipPath clipPathUnits="userSpaceOnUse">
          <path d="M73.129 112.829h402.24v75.84H73.129v-75.84z"></path>
        </clipPath>
        <clipPath id="clipPath180" clipPathUnits="userSpaceOnUse">
          <path d="M473.244 45.037h103.605v33.15H473.244v-33.15z"></path>
        </clipPath>
        <clipPath id="clipPath192" clipPathUnits="userSpaceOnUse">
          <path d="M473.244 45.037H576.85v33.15H473.244v-33.15z"></path>
        </clipPath>
        <clipPath id="clipPath260" clipPathUnits="userSpaceOnUse">
          <path d="M473.244 45.037h103.605v33.15H473.244v-33.15z"></path>
        </clipPath>
        <clipPath id="clipPath276" clipPathUnits="userSpaceOnUse">
          <path d="M473.244 45.037H576.85v33.15H473.244v-33.15z"></path>
        </clipPath>
        <clipPath clipPathUnits="userSpaceOnUse">
          <path d="M0 0h623.622v793.701H0V0z"></path>
        </clipPath>
        <clipPath clipPathUnits="userSpaceOnUse">
          <path d="M334.22 566.743l.216.124c16.211 9.55 34.882 14.804 54.103 14.804a105.171 105.171 0 01-.002.001c-19.306 0-38.055-5.3-54.317-14.929m122.024-10.679a105.545 105.545 0 0022.072-25.685 104.784 104.784 0 005.441-10.092 106.943 106.943 0 008.542-26.784 106.932 106.932 0 001.441-26.02c.238.102.509.179.815.215l.035.606.003.068.006.109.007.118.002.052.008.144v.014c.07 1.369.114 2.751.131 4.134v.021l.005.477.001.032v.112l.001.088.001.097v.189l.001.115V474.647l-.001.243-.001.05-.001.232v.027l-.003.249v.054l-.003.25v.025l-.004.239v.039l-.004.245-.001.055-.005.247-.001.025-.005.237-.001.043-.006.248-.001.046-.007.241v.017l-.008.246-.001.058-.008.243-.002.041-.007.227-.002.038-.009.248-.002.048-.01.247-.001.035-.01.227-.002.043-.011.244-.002.054-.012.244v.006l-.013.25-.003.052-.013.243-.002.044-.013.232-.001.026-.015.246-.003.053-.015.245-.002.033-.014.229-.003.04-.016.243-.003.053-.017.247-.001.009-.017.239-.004.055-.017.24-.004.045-.017.228-.003.031-.018.238-.005.061-.019.234-.005.051-.017.208a.842.842 0 00-.004.05l-.021.234-.005.059-.021.242a.179.179 0 00-.002.023l-.021.224-.005.058-.023.234-.005.053-.022.227a.194.194 0 01-.002.024l-.024.24-.005.054-.024.234-.006.059-.021.2-.006.052-.024.228a17.49 17.49 0 01-.033.296l-.006.053-.021.19a1.62 1.62 0 00-.008.069l-.025.22-.009.077-.023.192-.01.084-.022.182-.01.084-.025.206-.012.091-.021.165-.009.075-.026.201-.012.096-.027.202-.011.089a6.517 6.517 0 00-.02.147l-.013.098-.027.194-.014.103a8.46 8.46 0 01-.022.157 42.815 42.815 0 00-.037.266l-.016.11-.026.182-.018.123-.015.107-.029.192-.015.103-.019.127-.025.159-.021.142-.014.09-.037.236-.01.063a6.87 6.87 0 00-.022.141l-.011.067-.041.252-.008.052-.078.476-.001.003-.056.329v.002a106.791 106.791 0 01-4.179 16.475c-6.521 18.667-18.274 35.453-34.11 48.108.441-.36.88-.724 1.314-1.09m37.419-89.642a2.758 2.758 0 010 0M473.815 412.4a105.86 105.86 0 00-23.954-23.921c11.601 8.182 21.634 18.717 29.285 31.195a2.462 2.462 0 00-.243.442 107.554 107.554 0 00-5.088-7.716"></path>
        </clipPath>
        <linearGradient
          x1="0"
          x2="1"
          y1="0"
          y2="0"
          gradientTransform="scale(-18.38738) rotate(71.645 3.202 -31.09)"
          gradientUnits="userSpaceOnUse"
          spreadMethod="pad"
        >
          <stop offset="0" stopColor="#010102" stopOpacity="1"></stop>
          <stop offset="0.032" stopColor="#e9e9e9" stopOpacity="1"></stop>
          <stop offset="0.14" stopColor="#dedfdf" stopOpacity="1"></stop>
          <stop offset="0.156" stopColor="#dadada" stopOpacity="1"></stop>
          <stop offset="0.285" stopColor="#2e2e2e" stopOpacity="1"></stop>
          <stop offset="0.392" stopColor="#4b4a4a" stopOpacity="1"></stop>
          <stop offset="0.473" stopColor="#131313" stopOpacity="1"></stop>
          <stop offset="0.634" stopColor="#010102" stopOpacity="1"></stop>
          <stop offset="0.769" stopColor="#c6c5c5" stopOpacity="1"></stop>
          <stop offset="0.952" stopColor="#fff" stopOpacity="1"></stop>
          <stop offset="1" stopColor="#383838" stopOpacity="1"></stop>
        </linearGradient>
        <linearGradient
          x1="0"
          x2="1"
          y1="0"
          y2="0"
          gradientTransform="scale(17.90064 -17.90064) rotate(-71.645 -2.782 -31.233)"
          gradientUnits="userSpaceOnUse"
          spreadMethod="pad"
        >
          <stop offset="0" stopColor="#010102" stopOpacity="1"></stop>
          <stop offset="0.032" stopColor="#e9e9e9" stopOpacity="1"></stop>
          <stop offset="0.14" stopColor="#dedfdf" stopOpacity="1"></stop>
          <stop offset="0.156" stopColor="#dadada" stopOpacity="1"></stop>
          <stop offset="0.285" stopColor="#2e2e2e" stopOpacity="1"></stop>
          <stop offset="0.392" stopColor="#4b4a4a" stopOpacity="1"></stop>
          <stop offset="0.473" stopColor="#131313" stopOpacity="1"></stop>
          <stop offset="0.634" stopColor="#010102" stopOpacity="1"></stop>
          <stop offset="0.769" stopColor="#c6c5c5" stopOpacity="1"></stop>
          <stop offset="0.952" stopColor="#fff" stopOpacity="1"></stop>
          <stop offset="1" stopColor="#383838" stopOpacity="1"></stop>
        </linearGradient>
        <linearGradient
          x1="0"
          x2="1"
          y1="0"
          y2="0"
          gradientTransform="scale(-19.84849) rotate(71.645 2.339 -29.293)"
          gradientUnits="userSpaceOnUse"
          spreadMethod="pad"
        >
          <stop offset="0" stopColor="#010102" stopOpacity="1"></stop>
          <stop offset="0.032" stopColor="#e9e9e9" stopOpacity="1"></stop>
          <stop offset="0.14" stopColor="#dedfdf" stopOpacity="1"></stop>
          <stop offset="0.156" stopColor="#dadada" stopOpacity="1"></stop>
          <stop offset="0.285" stopColor="#2e2e2e" stopOpacity="1"></stop>
          <stop offset="0.392" stopColor="#4b4a4a" stopOpacity="1"></stop>
          <stop offset="0.473" stopColor="#131313" stopOpacity="1"></stop>
          <stop offset="0.634" stopColor="#010102" stopOpacity="1"></stop>
          <stop offset="0.769" stopColor="#c6c5c5" stopOpacity="1"></stop>
          <stop offset="0.952" stopColor="#fff" stopOpacity="1"></stop>
          <stop offset="1" stopColor="#383838" stopOpacity="1"></stop>
        </linearGradient>
        <linearGradient
          x1="0"
          x2="1"
          y1="0"
          y2="0"
          gradientTransform="scale(19.32572 -19.32572) rotate(-71.645 -1.878 -29.396)"
          gradientUnits="userSpaceOnUse"
          spreadMethod="pad"
        >
          <stop offset="0" stopColor="#010102" stopOpacity="1"></stop>
          <stop offset="0.032" stopColor="#e9e9e9" stopOpacity="1"></stop>
          <stop offset="0.14" stopColor="#dedfdf" stopOpacity="1"></stop>
          <stop offset="0.156" stopColor="#dadada" stopOpacity="1"></stop>
          <stop offset="0.285" stopColor="#2e2e2e" stopOpacity="1"></stop>
          <stop offset="0.392" stopColor="#4b4a4a" stopOpacity="1"></stop>
          <stop offset="0.473" stopColor="#131313" stopOpacity="1"></stop>
          <stop offset="0.634" stopColor="#010102" stopOpacity="1"></stop>
          <stop offset="0.769" stopColor="#c6c5c5" stopOpacity="1"></stop>
          <stop offset="0.952" stopColor="#fff" stopOpacity="1"></stop>
          <stop offset="1" stopColor="#383838" stopOpacity="1"></stop>
        </linearGradient>
        <clipPath clipPathUnits="userSpaceOnUse">
          <path d="M226.904 657.537l-22.809-6.756 115.521-389.993 304.006 90.05v279.094l-39.518 133.413-357.2-105.808z"></path>
        </clipPath>
        <linearGradient
          x1="0"
          x2="1"
          y1="0"
          y2="0"
          gradientTransform="scale(19.32459 -19.32459) rotate(-71.645 -2.31 -29.086)"
          gradientUnits="userSpaceOnUse"
          spreadMethod="pad"
        >
          <stop offset="0" stopColor="#010102" stopOpacity="1"></stop>
          <stop offset="0.032" stopColor="#e9e9e9" stopOpacity="1"></stop>
          <stop offset="0.14" stopColor="#dedfdf" stopOpacity="1"></stop>
          <stop offset="0.156" stopColor="#dadada" stopOpacity="1"></stop>
          <stop offset="0.285" stopColor="#2e2e2e" stopOpacity="1"></stop>
          <stop offset="0.392" stopColor="#4b4a4a" stopOpacity="1"></stop>
          <stop offset="0.473" stopColor="#131313" stopOpacity="1"></stop>
          <stop offset="0.634" stopColor="#010102" stopOpacity="1"></stop>
          <stop offset="0.769" stopColor="#c6c5c5" stopOpacity="1"></stop>
          <stop offset="0.952" stopColor="#fff" stopOpacity="1"></stop>
          <stop offset="1" stopColor="#383838" stopOpacity="1"></stop>
        </linearGradient>
        <clipPath clipPathUnits="userSpaceOnUse">
          <path d="M226.904 657.537l-22.809-6.756 115.521-389.993 304.006 90.05v279.094l-39.518 133.413-357.2-105.808z"></path>
        </clipPath>
        <linearGradient
          x1="0"
          x2="1"
          y1="0"
          y2="0"
          gradientTransform="scale(22.28554 -22.28554) rotate(-71.645 -2.052 -25.116)"
          gradientUnits="userSpaceOnUse"
          spreadMethod="pad"
        >
          <stop offset="0" stopColor="#010102" stopOpacity="1"></stop>
          <stop offset="0.032" stopColor="#e9e9e9" stopOpacity="1"></stop>
          <stop offset="0.14" stopColor="#dedfdf" stopOpacity="1"></stop>
          <stop offset="0.156" stopColor="#dadada" stopOpacity="1"></stop>
          <stop offset="0.285" stopColor="#2e2e2e" stopOpacity="1"></stop>
          <stop offset="0.392" stopColor="#4b4a4a" stopOpacity="1"></stop>
          <stop offset="0.473" stopColor="#131313" stopOpacity="1"></stop>
          <stop offset="0.634" stopColor="#010102" stopOpacity="1"></stop>
          <stop offset="0.769" stopColor="#c6c5c5" stopOpacity="1"></stop>
          <stop offset="0.952" stopColor="#fff" stopOpacity="1"></stop>
          <stop offset="1" stopColor="#383838" stopOpacity="1"></stop>
        </linearGradient>
        <clipPath clipPathUnits="userSpaceOnUse">
          <path d="M226.904 657.537l-22.809-6.756 115.521-389.993 304.006 90.05v279.094l-39.518 133.413-357.2-105.808z"></path>
        </clipPath>
        <linearGradient
          x1="0"
          x2="1"
          y1="0"
          y2="0"
          gradientTransform="scale(22.2848 -22.2848) rotate(-71.645 -2.287 -24.948)"
          gradientUnits="userSpaceOnUse"
          spreadMethod="pad"
        >
          <stop offset="0" stopColor="#010102" stopOpacity="1"></stop>
          <stop offset="0.032" stopColor="#e9e9e9" stopOpacity="1"></stop>
          <stop offset="0.14" stopColor="#dedfdf" stopOpacity="1"></stop>
          <stop offset="0.156" stopColor="#dadada" stopOpacity="1"></stop>
          <stop offset="0.285" stopColor="#2e2e2e" stopOpacity="1"></stop>
          <stop offset="0.392" stopColor="#4b4a4a" stopOpacity="1"></stop>
          <stop offset="0.473" stopColor="#131313" stopOpacity="1"></stop>
          <stop offset="0.634" stopColor="#010102" stopOpacity="1"></stop>
          <stop offset="0.769" stopColor="#c6c5c5" stopOpacity="1"></stop>
          <stop offset="0.952" stopColor="#fff" stopOpacity="1"></stop>
          <stop offset="1" stopColor="#383838" stopOpacity="1"></stop>
        </linearGradient>
        <linearGradient
          x1="0"
          x2="1"
          y1="0"
          y2="0"
          gradientTransform="rotate(-108.355 424.916 25.494) scale(18.38779)"
          gradientUnits="userSpaceOnUse"
          spreadMethod="pad"
        >
          <stop offset="0" stopColor="#010102" stopOpacity="1"></stop>
          <stop offset="0.032" stopColor="#e9e9e9" stopOpacity="1"></stop>
          <stop offset="0.14" stopColor="#dedfdf" stopOpacity="1"></stop>
          <stop offset="0.156" stopColor="#dadada" stopOpacity="1"></stop>
          <stop offset="0.285" stopColor="#2e2e2e" stopOpacity="1"></stop>
          <stop offset="0.392" stopColor="#4b4a4a" stopOpacity="1"></stop>
          <stop offset="0.473" stopColor="#131313" stopOpacity="1"></stop>
          <stop offset="0.634" stopColor="#010102" stopOpacity="1"></stop>
          <stop offset="0.769" stopColor="#c6c5c5" stopOpacity="1"></stop>
          <stop offset="0.952" stopColor="#fff" stopOpacity="1"></stop>
          <stop offset="1" stopColor="#383838" stopOpacity="1"></stop>
        </linearGradient>
        <linearGradient
          x1="0"
          x2="1"
          y1="0"
          y2="0"
          gradientTransform="scale(17.9016 -17.9016) rotate(-71.645 -1.466 -32.182)"
          gradientUnits="userSpaceOnUse"
          spreadMethod="pad"
        >
          <stop offset="0" stopColor="#010102" stopOpacity="1"></stop>
          <stop offset="0.032" stopColor="#e9e9e9" stopOpacity="1"></stop>
          <stop offset="0.14" stopColor="#dedfdf" stopOpacity="1"></stop>
          <stop offset="0.156" stopColor="#dadada" stopOpacity="1"></stop>
          <stop offset="0.285" stopColor="#2e2e2e" stopOpacity="1"></stop>
          <stop offset="0.392" stopColor="#4b4a4a" stopOpacity="1"></stop>
          <stop offset="0.473" stopColor="#131313" stopOpacity="1"></stop>
          <stop offset="0.634" stopColor="#010102" stopOpacity="1"></stop>
          <stop offset="0.769" stopColor="#c6c5c5" stopOpacity="1"></stop>
          <stop offset="0.952" stopColor="#fff" stopOpacity="1"></stop>
          <stop offset="1" stopColor="#383838" stopOpacity="1"></stop>
        </linearGradient>
        <clipPath clipPathUnits="userSpaceOnUse">
          <path d="M226.904 657.537l-22.809-6.756 115.521-389.993 304.006 90.05v279.094l-39.518 133.413-357.2-105.808z"></path>
        </clipPath>
        <linearGradient
          x1="0"
          x2="1"
          y1="0"
          y2="0"
          gradientTransform="matrix(6.08523 18.341 18.341 -6.08523 532.923 417.484)"
          gradientUnits="userSpaceOnUse"
          spreadMethod="pad"
        >
          <stop offset="0" stopColor="#010102" stopOpacity="1"></stop>
          <stop offset="0.032" stopColor="#e9e9e9" stopOpacity="1"></stop>
          <stop offset="0.14" stopColor="#dedfdf" stopOpacity="1"></stop>
          <stop offset="0.156" stopColor="#dadada" stopOpacity="1"></stop>
          <stop offset="0.285" stopColor="#2e2e2e" stopOpacity="1"></stop>
          <stop offset="0.392" stopColor="#4b4a4a" stopOpacity="1"></stop>
          <stop offset="0.473" stopColor="#131313" stopOpacity="1"></stop>
          <stop offset="0.634" stopColor="#010102" stopOpacity="1"></stop>
          <stop offset="0.769" stopColor="#c6c5c5" stopOpacity="1"></stop>
          <stop offset="0.952" stopColor="#fff" stopOpacity="1"></stop>
          <stop offset="1" stopColor="#383838" stopOpacity="1"></stop>
        </linearGradient>
        <clipPath clipPathUnits="userSpaceOnUse">
          <path d="M226.904 657.537l-22.809-6.756 115.521-389.993 304.006 90.05v279.094l-39.518 133.413-357.2-105.808z"></path>
        </clipPath>
        <linearGradient
          x1="0"
          x2="1"
          y1="0"
          y2="0"
          gradientTransform="scale(22.28483 -22.28483) rotate(-71.645 -1.04 -25.847)"
          gradientUnits="userSpaceOnUse"
          spreadMethod="pad"
        >
          <stop offset="0" stopColor="#010102" stopOpacity="1"></stop>
          <stop offset="0.032" stopColor="#e9e9e9" stopOpacity="1"></stop>
          <stop offset="0.14" stopColor="#dedfdf" stopOpacity="1"></stop>
          <stop offset="0.156" stopColor="#dadada" stopOpacity="1"></stop>
          <stop offset="0.285" stopColor="#2e2e2e" stopOpacity="1"></stop>
          <stop offset="0.392" stopColor="#4b4a4a" stopOpacity="1"></stop>
          <stop offset="0.473" stopColor="#131313" stopOpacity="1"></stop>
          <stop offset="0.634" stopColor="#010102" stopOpacity="1"></stop>
          <stop offset="0.769" stopColor="#c6c5c5" stopOpacity="1"></stop>
          <stop offset="0.952" stopColor="#fff" stopOpacity="1"></stop>
          <stop offset="1" stopColor="#383838" stopOpacity="1"></stop>
        </linearGradient>
        <clipPath clipPathUnits="userSpaceOnUse">
          <path d="M226.904 657.537l-22.809-6.756 115.521-389.993 304.006 90.05v279.094l-39.518 133.413-357.2-105.808z"></path>
        </clipPath>
        <linearGradient
          x1="0"
          x2="1"
          y1="0"
          y2="0"
          gradientTransform="matrix(7.01748 21.1508 21.1508 -7.01748 526.094 418.19)"
          gradientUnits="userSpaceOnUse"
          spreadMethod="pad"
        >
          <stop offset="0" stopColor="#010102" stopOpacity="1"></stop>
          <stop offset="0.032" stopColor="#e9e9e9" stopOpacity="1"></stop>
          <stop offset="0.14" stopColor="#dedfdf" stopOpacity="1"></stop>
          <stop offset="0.156" stopColor="#dadada" stopOpacity="1"></stop>
          <stop offset="0.285" stopColor="#2e2e2e" stopOpacity="1"></stop>
          <stop offset="0.392" stopColor="#4b4a4a" stopOpacity="1"></stop>
          <stop offset="0.473" stopColor="#131313" stopOpacity="1"></stop>
          <stop offset="0.634" stopColor="#010102" stopOpacity="1"></stop>
          <stop offset="0.769" stopColor="#c6c5c5" stopOpacity="1"></stop>
          <stop offset="0.952" stopColor="#fff" stopOpacity="1"></stop>
          <stop offset="1" stopColor="#383838" stopOpacity="1"></stop>
        </linearGradient>
        <linearGradient
          x1="0"
          x2="1"
          y1="0"
          y2="0"
          gradientTransform="scale(66.6744 -66.6744) rotate(-56.647 -.937 -11.086)"
          gradientUnits="userSpaceOnUse"
          spreadMethod="pad"
        >
          <stop offset="0" stopColor="#010102" stopOpacity="1"></stop>
          <stop offset="0.038" stopColor="#444" stopOpacity="1"></stop>
          <stop offset="0.145" stopColor="#191919" stopOpacity="1"></stop>
          <stop offset="0.194" stopColor="#010102" stopOpacity="1"></stop>
          <stop offset="0.543" stopColor="#010102" stopOpacity="1"></stop>
          <stop offset="0.565" stopColor="#131313" stopOpacity="1"></stop>
          <stop offset="0.634" stopColor="#393939" stopOpacity="1"></stop>
          <stop offset="0.731" stopColor="#4b4a4a" stopOpacity="1"></stop>
          <stop offset="0.78" stopColor="#1c1c1c" stopOpacity="1"></stop>
          <stop offset="0.866" stopColor="#1a1a1a" stopOpacity="1"></stop>
          <stop offset="0.957" stopColor="#424242" stopOpacity="1"></stop>
          <stop offset="1" stopColor="#444" stopOpacity="1"></stop>
          <stop offset="1" stopColor="#444" stopOpacity="1"></stop>
        </linearGradient>
        <linearGradient
          x1="0"
          x2="1"
          y1="0"
          y2="0"
          gradientTransform="scale(66.67451 -66.67451) rotate(-56.647 -.948 -11.08)"
          gradientUnits="userSpaceOnUse"
          spreadMethod="pad"
        >
          <stop offset="0" stopColor="#010102" stopOpacity="1"></stop>
          <stop offset="0.038" stopColor="#444" stopOpacity="1"></stop>
          <stop offset="0.145" stopColor="#191919" stopOpacity="1"></stop>
          <stop offset="0.194" stopColor="#010102" stopOpacity="1"></stop>
          <stop offset="0.543" stopColor="#010102" stopOpacity="1"></stop>
          <stop offset="0.565" stopColor="#131313" stopOpacity="1"></stop>
          <stop offset="0.634" stopColor="#393939" stopOpacity="1"></stop>
          <stop offset="0.731" stopColor="#4b4a4a" stopOpacity="1"></stop>
          <stop offset="0.78" stopColor="#1c1c1c" stopOpacity="1"></stop>
          <stop offset="0.866" stopColor="#1a1a1a" stopOpacity="1"></stop>
          <stop offset="0.957" stopColor="#424242" stopOpacity="1"></stop>
          <stop offset="1" stopColor="#444" stopOpacity="1"></stop>
          <stop offset="1" stopColor="#444" stopOpacity="1"></stop>
        </linearGradient>
        <linearGradient
          x1="0"
          x2="1"
          y1="0"
          y2="0"
          gradientTransform="scale(29.01025 -29.01025) rotate(-71.645 .968 -20.998)"
          gradientUnits="userSpaceOnUse"
          spreadMethod="pad"
        >
          <stop offset="0" stopColor="#010102" stopOpacity="1"></stop>
          <stop offset="0.038" stopColor="#444" stopOpacity="1"></stop>
          <stop offset="0.145" stopColor="#191919" stopOpacity="1"></stop>
          <stop offset="0.194" stopColor="#010102" stopOpacity="1"></stop>
          <stop offset="0.543" stopColor="#010102" stopOpacity="1"></stop>
          <stop offset="0.565" stopColor="#131313" stopOpacity="1"></stop>
          <stop offset="0.634" stopColor="#393939" stopOpacity="1"></stop>
          <stop offset="0.731" stopColor="#4b4a4a" stopOpacity="1"></stop>
          <stop offset="0.78" stopColor="#1c1c1c" stopOpacity="1"></stop>
          <stop offset="0.866" stopColor="#1a1a1a" stopOpacity="1"></stop>
          <stop offset="0.957" stopColor="#424242" stopOpacity="1"></stop>
          <stop offset="1" stopColor="#444" stopOpacity="1"></stop>
          <stop offset="1" stopColor="#444" stopOpacity="1"></stop>
        </linearGradient>
        <linearGradient
          x1="0"
          x2="1"
          y1="0"
          y2="0"
          gradientTransform="scale(29.12514 -29.12514) rotate(-56.647 -4.234 -24.043)"
          gradientUnits="userSpaceOnUse"
          spreadMethod="pad"
        >
          <stop offset="0" stopColor="#010102" stopOpacity="1"></stop>
          <stop offset="0.038" stopColor="#444" stopOpacity="1"></stop>
          <stop offset="0.145" stopColor="#191919" stopOpacity="1"></stop>
          <stop offset="0.194" stopColor="#010102" stopOpacity="1"></stop>
          <stop offset="0.543" stopColor="#010102" stopOpacity="1"></stop>
          <stop offset="0.565" stopColor="#131313" stopOpacity="1"></stop>
          <stop offset="0.634" stopColor="#393939" stopOpacity="1"></stop>
          <stop offset="0.731" stopColor="#4b4a4a" stopOpacity="1"></stop>
          <stop offset="0.78" stopColor="#1c1c1c" stopOpacity="1"></stop>
          <stop offset="0.866" stopColor="#1a1a1a" stopOpacity="1"></stop>
          <stop offset="0.957" stopColor="#424242" stopOpacity="1"></stop>
          <stop offset="1" stopColor="#444" stopOpacity="1"></stop>
          <stop offset="1" stopColor="#444" stopOpacity="1"></stop>
        </linearGradient>
        <clipPath clipPathUnits="userSpaceOnUse">
          <path d="M226.904 657.537l-22.809-6.756 115.521-389.993 304.006 90.05v279.094l-39.518 133.413-357.2-105.808z"></path>
        </clipPath>
        <linearGradient
          x1="0"
          x2="1"
          y1="0"
          y2="0"
          gradientTransform="matrix(4.0909 12.33003 12.33003 -4.0909 482.47 418.887)"
          gradientUnits="userSpaceOnUse"
          spreadMethod="pad"
        >
          <stop offset="0" stopColor="#581112" stopOpacity="1"></stop>
          <stop offset="0.263" stopColor="#581112" stopOpacity="1"></stop>
          <stop offset="0.769" stopColor="#010102" stopOpacity="1"></stop>
          <stop offset="1" stopColor="#010102" stopOpacity="1"></stop>
        </linearGradient>
        <clipPath clipPathUnits="userSpaceOnUse">
          <path d="M308.255 545.163a106.618 106.618 0 0026.181 21.704l-.029-.017-.203-.117a106.547 106.547 0 01-26.3-21.969l.351.399a105.485 105.485 0 01-7.186-9.209v-61.263h96.832v105.531c-3.418.329-6.828.49-10.22.49-30.541 0-59.582-13.11-79.426-35.549"></path>
        </clipPath>
        <clipPath clipPathUnits="userSpaceOnUse">
          <path d="M397.701 474.691h96.278l-.001.28v.001c-.001.453-.006.906-.013 1.358v.021l-.004.203v.027l-.004.19-.001.039-.004.187v.035l-.005.197-.001.024c-.005.225-.012.449-.019.673v.02l-.006.196-.002.059-.005.155-.003.077-.005.138-.003.088-.006.129-.003.088-.006.127-.003.096-.006.119-.003.097-.006.12a3.21 3.21 0 01-.004.098l-.01.208-.005.105-.005.105-.006.122a2.87 2.87 0 00-.005.095l-.006.115-.005.101a4.357 4.357 0 00-.007.114 3.28 3.28 0 01-.005.099 4.795 4.795 0 00-.007.123l-.005.083-.008.135a1.689 1.689 0 00-.004.071l-.009.144-.004.06-.009.152-.003.035c-.011.191-.024.382-.037.573v.009a4.357 4.357 0 00-.012.161l-.004.053-.011.157-.004.051-.012.162-.003.045-.013.169-.003.033-.013.176-.002.025c-.037.466-.076.933-.12 1.399v.009l-.018.189-.001.022a6.035 6.035 0 00-.018.189l-.001.007a106.99 106.99 0 01-.439 3.838l-.001.012c-.07.529-.144 1.058-.222 1.585l-.005.034-.025.171-.006.035a9.722 9.722 0 00-.025.168.29.29 0 00-.006.041l-.026.168a2.285 2.285 0 00-.006.034l-.026.171-.004.03-.121.755-.005.031-.025.15a1.14 1.14 0 01-.011.062l-.021.134-.014.083a2.716 2.716 0 00-.021.125c-.006.028-.01.056-.015.085l-.021.123a2.803 2.803 0 00-.016.097 4.289 4.289 0 00-.019.111l-.019.107-.018.101a4.856 4.856 0 01-.023.128l-.014.086-.038.209a106.943 106.943 0 01-8.542 26.784 105.545 105.545 0 01-27.513 35.777l-.172.145c-.214.179-.429.358-.645.536l-.005.005-.16.131-.185.153-.019.016-.14.114c-9.672 7.726-20.866 13.913-33.318 18.043a107.99 107.99 0 01-23.899 5.034v-105.55z"></path>
        </clipPath>
        <clipPath clipPathUnits="userSpaceOnUse">
          <path d="M287.609 509.113l.062.193-.176-.524c-10.967-33.062-4.748-67.761 13.775-94.36v.641a109.325 109.325 0 00-7.819 13.599 110.035 110.035 0 00-10.829 41.833c.875-14.191 4.563-28.177 11.023-41.251 2-4.048 4.229-7.934 6.668-11.64a109.468 109.468 0 00-6.598 11.751 110.037 110.037 0 00-10.83 41.833c.876-14.191 4.562-28.178 11.023-41.251a108.575 108.575 0 017.362-12.68v118.985a106.065 106.065 0 01-13.661-27.129"></path>
        </clipPath>
        <clipPath clipPathUnits="userSpaceOnUse">
          <path d="M301.069 474.891v-57.336c13.052-19.475 32.003-33.963 54.525-41.434a105.174 105.174 0 0133.16-5.376c3.065 0 6.116.134 9.147.399v103.747h-96.832zm0-60.18c12.628-18.262 31.04-32.742 53.66-40.303-22.129 7.398-40.749 21.699-53.66 40.954v-.651zm53.706-40.319l-.031.011.031-.011m.033-.01a.414.414 0 010 0m.079-.026l-.048.015.048-.015m.24-.08a.383.383 0 010 0m.032-.011l-.032.011.032-.011m33.218-5.354c3.193 0 6.37.145 9.524.43v.208a103.517 103.517 0 00-42.679 4.696 105.949 105.949 0 0133.155-5.334"></path>
        </clipPath>
        <clipPath clipPathUnits="userSpaceOnUse">
          <path d="M397.701 474.891V371.127c28.135 2.402 54.492 16.037 72.947 37.777-11.364-13.547-25.674-24.039-41.516-30.739a108.543 108.543 0 0141.251 30.047c-18.465-22.016-44.708-35.959-72.682-38.682v-.207c18.85 1.671 36.85 8.362 52.138 19.139a105.425 105.425 0 015.449 4.197l.012.009.23.191.029.023.235.197a.013.013 0 01.006.004l.487.409.044.037.194.164.052.044.208.178.026.021c.081.071.161.139.243.209l.005.005.223.192.06.052.174.151.066.057.184.162c.015.013.031.026.045.04l.23.201.046.042.18.158.078.07.151.135.079.071.165.147.062.056.22.198.064.059.159.144.085.077.142.13.085.078.154.142.069.063.213.197.08.074.14.131.094.088.128.12.094.088.14.132.081.076.205.195.09.086.128.123.097.092.125.121.094.09.145.14.07.069.207.199.088.088.127.123.097.096.122.12.093.093.146.144.089.089.183.182.086.087.127.127.094.095.125.126.089.09.159.161.079.082.176.179.086.09.125.128.093.096.124.128.087.091.166.173.083.087.16.169.086.089.125.134.088.092.131.139.078.083.202.216c.013.014.025.028.039.041.056.062.113.124.17.184l.073.079.137.149.077.083.142.156.066.071.204.224.033.037.172.19.071.078.139.154.073.082.147.164.058.066.204.228c.011.015.024.028.036.042l.168.19.066.075.143.163.065.075.156.18.049.055.204.235.03.035.172.199c.02.025.04.049.061.072l.146.171.061.071.163.193.038.044.204.241.031.039.169.201.058.069.147.177.057.069.168.201.032.04.202.245.032.039.166.204.056.068c.048.061.097.12.145.179l.058.071.173.216.021.026.199.247.043.056c.052.063.102.127.153.191l.059.074.143.181.054.069c.059.074.119.15.177.226l.017.019.195.252.044.055.15.195.058.073.141.184.053.069.186.243.004.006.194.254.046.061.145.191.057.078.139.184.054.071.183.247.004.006.189.254.051.07.136.184.061.085c.045.06.088.12.134.18l.054.077.185.254.158.219.045.062.115.162.049.068.112.157.047.066.124.175.031.044c.163.231.325.462.486.694.002.003.005.006.006.01.052.073.103.147.154.222l.014.019.154.223.004.007c.543.79 1.074 1.586 1.595 2.39l.016.025.136.21.02.031.139.215.012.021c.101.157.201.314.3.472l.038.058.102.163.063.1.075.12.076.12.055.09.093.149.021.034c.286.461.569.924.848 1.39a2.23 2.23 0 00-.031.072c-1.007 1.107-.619 2.803-.619 2.803 7.584 12.969 12.398 27.672 13.887 42.751 0 0 .371 1.213 1.6 1.741l.041.651.002.022.012.206a.086.086 0 01.001.016l.012.209.001.018.012.213v.009a107.7 107.7 0 01.158 6.064h-96.278zm95.859-8.549a2.812 2.812 0 010 0m-11.385-37.705a105.839 105.839 0 000 0"></path>
        </clipPath>
        <clipPath clipPathUnits="userSpaceOnUse">
          <path d="M329.905 564.105l-.017-.01-.15-.097-.037-.024-.138-.09-.035-.022-.171-.112a105.55 105.55 0 01-9.119-6.681c-8.085-6.615-15.161-14.434-20.977-23.111-8.149-12.158-13.452-25.428-16.056-39.008a106.86 106.86 0 01-.984-6.077l-.02-.154a.916.916 0 00-.007-.055l-.08-.632a.35.35 0 00.065-.335.359.359 0 00-.127-.174l-.055-.469-.012-.106-.03-.272a.572.572 0 00.155-.6.567.567 0 00-.253-.315c-.057-.558-.11-1.117-.158-1.675v-.004a21.783 21.783 0 01-.023-.265l-.005-.058-.017-.206-.009-.112a104.37 104.37 0 01-.012-.155l-.012-.153a3.79 3.79 0 01-.008-.11l-.014-.186-.006-.079-.016-.222-.003-.036-.017-.25-.001-.015a106.476 106.476 0 01-.229-5.141 107.24 107.24 0 011.653-21.049l.046-.254.011-.063.044-.239.012-.066.039-.21.012-.064.041-.215.016-.088.042-.216.019-.099.031-.161.024-.123.034-.17.023-.117.04-.198.024-.119.023-.112.045-.22.017-.087.031-.148.015-.072.053-.253.016-.074.059-.274.009-.045.035-.164.006-.024.067-.309.008-.036.113-.504.003-.013.075-.33.003-.015a106.99 106.99 0 013.56-12.173l.001-.002.181-.501.005-.014.109-.3a65.722 65.722 0 01.192-.518l.017-.044.099-.266a84.2 84.2 0 01.195-.512l.034-.089.077-.201.042-.11.048-.122.07-.18.045-.115.052-.133.055-.138.058-.148.043-.108.078-.196.037-.091.064-.159.038-.094.08-.198.031-.075.088-.218.029-.068.078-.191.021-.049.097-.234.022-.052c.033-.082.068-.163.102-.244l.006-.015.107-.254.005-.013.111-.259.008-.02a106.293 106.293 0 016.161-12.197c13.48-21.822 34.112-38.122 58.901-46.344 11.453-3.799 23.222-5.685 34.925-5.685 2.567 0 5.133.09 7.689.272a107.274 107.274 0 0129.116 6.949 106.373 106.373 0 0116.099 7.956l.257.155.071.044.186.114.085.052.18.11.078.048.231.143.021.013.263.164.041.026.218.137.062.039.204.128.057.037.231.147.025.016.53.34.032.021.23.15a.57.57 0 01.041.026l.243.159a102.613 102.613 0 013.76 2.584c-17.791-12.543-39.259-19.552-61.461-19.552a105.949 105.949 0 00-33.155 5.334l-.063.02-.063.022-.129.042-.08.027-.048.015-.031.011-.064.021a.088.088 0 00-.015.005c-55.522 18.559-85.675 78.782-67.234 134.374l.176.524.043.134a102.495 102.495 0 0020.19 35.324 106.591 106.591 0 0026.3 21.969 104.842 104.842 0 01-4.299-2.628"></path>
        </clipPath>
        <clipPath clipPathUnits="userSpaceOnUse">
          <path d="M307.904 544.764a102.495 102.495 0 01-20.19-35.324l-.043-.134-.062-.193c4.586 13.674 11.698 25.806 20.646 36.05a62.687 62.687 0 01-.351-.399"></path>
        </clipPath>
        <clipPath clipPathUnits="userSpaceOnUse">
          <path d="M297.352 418.529l.035-.057.08-.129a2.98 2.98 0 00.046-.074l.095-.151.077-.122.041-.065.078-.124.02-.032.268-.422.018-.028.281-.437a12.25 12.25 0 01.101-.156l.005-.007.286-.439.016-.023.269-.408.033-.05.078-.117.045-.068a9.63 9.63 0 00.086-.129l.089-.132.063-.093.063-.094.06-.089.091-.134a2.54 2.54 0 01.058-.085l.091-.135.044-.064.095-.138.033-.049.126-.183.029-.043.104-.15.033-.048.131-.188.032-.046.009-.013c13.38-18.479 32.243-32.32 54.438-39.682 11.521-3.822 23.232-5.638 34.728-5.638.62 0 1.244.005 1.864.016 2.033.076 4.063.21 6.086.402a108.286 108.286 0 00-7.689-.272c-11.703 0-23.472 1.886-34.925 5.685-24.789 8.222-45.421 24.522-58.901 46.344.421-.716.851-1.427 1.29-2.133"></path>
        </clipPath>
        <clipPath clipPathUnits="userSpaceOnUse">
          <path d="M308.345 403.845l.027-.031.144-.16.043-.048.127-.14.075-.084.096-.106.115-.126.056-.062.148-.161.025-.028.162-.175.012-.014a106.543 106.543 0 018.718-8.442 107.147 107.147 0 018.762-6.795 106.858 106.858 0 018.326-5.25 105.555 105.555 0 0131.753-11.793 106.025 106.025 0 0111.354-1.605c4.4-.381 8.81-.486 13.203-.322-.62-.011-1.244-.016-1.864-.016-11.496 0-23.207 1.816-34.728 5.638-22.195 7.362-41.058 21.203-54.438 39.682a105.349 105.349 0 017.884-9.962"></path>
        </clipPath>
        <clipPath clipPathUnits="userSpaceOnUse">
          <path d="M293.715 429.355a109.468 109.468 0 016.598-11.751c13.066-19.851 32.209-34.611 55.019-42.177a105.188 105.188 0 0133.158-5.374c14.07 0 27.865 2.83 40.642 8.112 15.842 6.7 30.152 17.192 41.516 30.739-20.4-24.031-50.455-38.159-81.894-38.159a105.174 105.174 0 00-33.16 5.376c-27.067 8.978-48.975 28.091-61.686 53.816-6.461 13.073-10.147 27.06-11.023 41.251a110.037 110.037 0 0110.83-41.833"></path>
        </clipPath>
        <clipPath clipPathUnits="userSpaceOnUse">
          <path d="M293.451 428.662c12.565-25.981 34.318-45.24 61.278-54.254a.088.088 0 01.015-.005l.064-.021.031-.011.048-.015.08-.027.129-.042.063-.022.063-.02a103.517 103.517 0 0132.402-5.205c31.679 0 62.09 14.528 82.759 39.172a108.543 108.543 0 00-41.251-30.047c-12.777-5.282-26.572-8.112-40.642-8.112a105.188 105.188 0 00-33.158 5.374c-22.81 7.566-41.953 22.326-55.019 42.177a108.98 108.98 0 00-6.668 11.64c-6.46 13.074-10.148 27.06-11.023 41.251a110.035 110.035 0 0110.829-41.833"></path>
        </clipPath>
        <clipPath clipPathUnits="userSpaceOnUse">
          <path d="M368.912 579.424a107.018 107.018 0 01-27.617-8.935l-.209-.101-.046-.022-.163-.08-.057-.028-.152-.074-.062-.03-.148-.073a1.79 1.79 0 01-.062-.031l-.151-.074-.057-.029a12.136 12.136 0 00-.162-.08l-.045-.023-.204-.102-.002-.001-.212-.107a25.922 25.922 0 01-.204-.103l-.074-.038-.126-.064-.094-.048-.107-.054-.102-.053-.099-.051-.107-.055-.089-.046-.117-.061-.072-.038-.13-.067-.026-.014-.508-.267-.045-.024-.14-.074-.06-.033-.134-.071-.065-.035a8.589 8.589 0 00-.133-.071l-.064-.035-.132-.071-.07-.038-.126-.068-.087-.047-.109-.06-.195-.106-.053-.03-.154-.084a13.41 13.41 0 00-.213-.118l-.03-.017-.193-.107-.002-.001c-.424-.237-.846-.476-1.267-.718a106.618 106.618 0 01-26.181-21.704c19.844 22.439 48.885 35.549 79.426 35.549 11.231 0 22.665-1.772 33.919-5.505 12.452-4.13 23.646-10.316 33.317-18.043l-.081.067-.008.006-.225.183-.013.01-.471.379-.01.008-.211.168-.056.044-.174.138-.058.046-.183.144-.044.035-.466.363-.026.021-.208.16-.037.029-.203.156-.033.025a109.807 109.807 0 01-3.463 2.546l-.022.015-.225.158-.027.019-.247.172a107.52 107.52 0 01-9.403 5.856 106.595 106.595 0 01-9.037 4.448 105.771 105.771 0 01-15.469 5.331 106.198 106.198 0 01-26.721 3.411c-6.341 0-12.661-.564-18.884-1.678"></path>
        </clipPath>
        <clipPath clipPathUnits="userSpaceOnUse">
          <path d="M281.88 485.99l-.023-.229a.572.572 0 01.098.915 79.843 79.843 0 01-.075-.686"></path>
        </clipPath>
        <clipPath clipPathUnits="userSpaceOnUse">
          <path d="M282.102 487.941l-.048-.404-.002-.014a.35.35 0 01.062.509l-.012-.091"></path>
        </clipPath>
        <clipPath clipPathUnits="userSpaceOnUse">
          <path d="M493.56 466.342c-.707-.579-.94-1.341-.94-1.341a102.748 102.748 0 00-.827-6.36 105.839 105.839 0 00-9.618-30.004 104.742 104.742 0 00-3.442-6.385s-.253-1.076.148-2.073l-.009.009.03-.072.002.003.001.002a.711.711 0 00-.024.058l.035-.04c.205.343.41.688.611 1.033-.145.321-.172.617-.039.841 1.684 2.818 3.802 7.077 5.141 9.845.026-.218.047-.437.065-.655l.114.255.051.114.052.117.076.171.023.052a105.216 105.216 0 012.87 7.215l.018.052.06.169.032.092.052.149.046.13.041.118.088.253a106.04 106.04 0 013.104 10.873c1.021 4.479 1.746 9 2.177 13.534.06.642.116 1.284.165 1.925a2.812 2.812 0 01-.103-.08"></path>
        </clipPath>
        <clipPath clipPathUnits="userSpaceOnUse">
          <path d="M478.905 420.121a.174.174 0 01.011.018l-.035.04a.711.711 0 01.024-.058"></path>
        </clipPath>
        <clipPath clipPathUnits="userSpaceOnUse">
          <path d="M492.14 465.742c-1.489-15.079-6.303-29.782-13.887-42.751 0 0-.388-1.696.619-2.803l.009-.009c-.401.997-.148 2.073-.148 2.073a104.742 104.742 0 013.442 6.385 105.839 105.839 0 019.618 30.004c.341 2.109.618 4.231.827 6.36 0 0 .233.762.94 1.341.033.027.068.054.103.08.027.35.052.699.076 1.048l.001.013c-1.229-.528-1.6-1.741-1.6-1.741"></path>
        </clipPath>
        <clipPath clipPathUnits="userSpaceOnUse">
          <path d="M479.488 422.013c-.133-.224-.106-.52.039-.841l.338.583.024.041.062.109.064.111.034.06.112.196.008.014a107.005 107.005 0 013.502 6.709.1.1 0 00.007.015l.087.183.023.048.09.191.012.025.082.175.035.074.059.126.035.076.081.174.046.099.042.091.049.105.039.087.085.186.038.082.051.113.034.073.054.12.019.042.055.123c-.018.218-.039.437-.065.655-1.339-2.768-3.457-7.027-5.141-9.845"></path>
        </clipPath>
        <clipPath clipPathUnits="userSpaceOnUse">
          <path d="M75.244 191.785h75.839v13.44H75.244v-13.44z"></path>
        </clipPath>
      </defs>
      <g transform="matrix(1.25 0 0 -1.25 -955.195 461.372)">
        <g
          fillOpacity="1"
          stroke="none"
          strokeOpacity="1"
          transform="translate(290.912 290.912)"
        >
          <g fill="#a70004">
            <g
              fill="#a70004"
              fillOpacity="1"
              stroke="none"
              strokeOpacity="1"
              clipPath="url(#clipPath180)"
            >
              <g
                fill="#a70004"
                fillOpacity="1"
                stroke="none"
                strokeOpacity="1"
                transform="translate(483.786 64.456)"
              >
                <path
                  fill="#a70004"
                  fillOpacity="1"
                  fillRule="nonzero"
                  stroke="none"
                  strokeOpacity="1"
                  d="M0 0a1.452 1.452 0 00-.455-.097c-.722-.016-1.443-.019-2.166-.025a5.6 5.6 0 00-.467.012c-.266.021-.615.373-.604.719.011.396.003.794.003 1.19v1.165c-.003.34.18.559.464.703a.573.573 0 00.247.047c.758.004 1.516.004 2.275.002C.352 3.712.976 2.977 1.155 2.298A1.903 1.903 0 000 0m20.944-.834c.436.988.87 1.976 1.241 2.99.363.999.686 2.009.869 3.058.058.329.099.663.116.996.038.748-.109 1.458-.526 2.092-.344.523-.797.913-1.417 1.073-.8.203-1.511.008-2.14-.507-.393-.322-.684-.72-.783-1.228-.163-.832.01-1.589.566-2.238.223-.26.478-.493.719-.737a5.26 5.26 0 00.587-.676c.253-.363.332-.761.28-1.195-.07-.579-.242-1.131-.438-1.679-.447-1.254-1.015-2.455-1.573-3.661a30.528 30.528 0 00-1.094-2.13c-.038-.066-.081-.128-.123-.191-.084-.125-.207-.15-.343-.115-.141.035-.237.124-.262.271-.021.124-.034.247-.05.371-.07.531-.126 1.063-.211 1.591a40.413 40.413 0 01-.342 1.895c-.267 1.283-.548 2.564-.826 3.845l-.496 2.301c-.01.048-.019.096-.033.143a.354.354 0 01-.402.255.253.253 0 01-.127-.067 1.239 1.239 0 01-.168-.206c-.442-.676-.878-1.355-1.32-2.031-1.246-1.909-2.494-3.816-3.741-5.724-.883-1.352-1.765-2.704-2.65-4.055-.041-.064-.082-.129-.131-.186a1.475 1.475 0 00-.197-.198c-.19-.144-.342-.141-.521.012-.077.066-.153.14-.206.226-.22.351-.436.705-.643 1.064-.191.333-.162.546.1.823.098.103.21.194.325.278 1.005.732 1.743 1.677 2.272 2.794A7.72 7.72 0 017.943.759c.093.719.096 1.44.017 2.163a7.582 7.582 0 01-.595 2.253 7.482 7.482 0 01-1.219 1.911c-.423.487-.896.92-1.429 1.285a5.88 5.88 0 01-2.598.998c-.304.04-.613.062-.92.063-3.662.004-7.326.001-10.989.006a.743.743 0 01-.69-.51c-.011-.033-.02-.058-.062-.052v-19.703c.041.006.052-.02.062-.053a.745.745 0 01.703-.511c1.79.009 3.578.007 5.367.002.305-.002.51.14.652.386.043.073.05.169.067.255.007.048.002.099.002.148v3.841c.004.245.176.387.418.343a.178.178 0 00.1-.057c.055-.063.108-.132.15-.204a3091.21 3091.21 0 002.299-3.925c.104-.178.216-.348.365-.494a.97.97 0 01.71-.291l3.479-.002a.947.947 0 01.722.295c.125.133.242.275.342.427.855 1.301 1.706 2.605 2.557 3.908 1.017 1.557 2.035 3.116 3.054 4.67.058.089.131.17.201.25.118.13.26.12.392.056a.42.42 0 00.236-.321c.049-.263.103-.525.154-.788l.523-2.732c.195-1.02.378-2.044.516-3.072a31.38 31.38 0 00.182-1.783c.068-.917-.181-1.746-.621-2.534a9.657 9.657 0 00-1.237-1.725c-.319-.357-.663-.688-1.085-.926a2.022 2.022 0 00-.611-.228c-.257-.049-.506-.009-.751.069a3.332 3.332 0 00-.663.316c-.347.202-.689.411-1.043.601a3.546 3.546 0 01-1.179.372c-1.105.162-2.18-.491-2.495-1.53-.157-.514-.133-1.032-.003-1.546.184-.72.641-1.211 1.312-1.508.397-.175.819-.242 1.248-.271.144-.01.286-.037.427-.028.48.033.957.091 1.421.239.773.247 1.467.642 2.118 1.121a13.292 13.292 0 011.99 1.825c.988 1.093 1.893 2.256 2.758 3.446a48.98 48.98 0 012.529 3.845 64.407 64.407 0 011.956 3.551 85.374 85.374 0 012.162 4.556"
                ></path>
              </g>
            </g>
          </g>
          <g fill="#000">
            <g
              fill="#000"
              fillOpacity="1"
              stroke="none"
              strokeOpacity="1"
              clipPath="url(#clipPath192)"
            >
              <g transform="translate(509.393 54.063)">
                <path
                  fill="#000"
                  fillOpacity="1"
                  fillRule="nonzero"
                  stroke="none"
                  strokeOpacity="1"
                  d="M0 0h-2.735v3.291c0 .167-.13.301-.297.301h-.591a.295.295 0 01-.297-.301V-.594c0-.159.134-.288.297-.288H0c.16 0 .296.129.296.295v.293A.294.294 0 010 0"
                ></path>
              </g>
              <g transform="translate(512.22 54.109)">
                <path
                  fill="#000"
                  fillOpacity="1"
                  fillRule="nonzero"
                  stroke="none"
                  strokeOpacity="1"
                  d="M0 0a1.76 1.76 0 00-.934-.282c-.334 0-.507.167-.507.389 0 .211.173.377.475.377H0V0zm1.089 1.193c0 .98-.729 1.363-1.654 1.363-1.043 0-1.714-.23-1.714-.895a.19.19 0 01.194-.192h.47c.161 0 .276.065.359.166.111.135.35.212.612.212.431 0 .644-.155.644-.654h-1.043C-1.886 1.193-2.53.83-2.53.107c0-.721.644-1.099 1.487-1.099.496 0 .851.148 1.142.351v-.095c0-.108.081-.191.191-.191h.606c.109 0 .193.083.193.191v1.929z"
                ></path>
              </g>
              <g transform="translate(516.49 58.035)">
                <path
                  fill="#000"
                  fillOpacity="1"
                  fillRule="nonzero"
                  stroke="none"
                  strokeOpacity="1"
                  d="M0 0h1.81c.487 0 1.105-.173 1.105-.725 0-.553-.618-.726-1.105-.726H0V0zm-1.601.795v-5.252c0-.214.185-.396.402-.396h.801c.226 0 .398.182.398.396v1.815h1.035c.549 0 .861-.355 1.079-.691l.722-1.124c.139-.225.435-.396.651-.396h1.019c.225 0 .287.171.146.396L3.88-3.239c-.349.544-.609.847-.965.976.878.173 1.599.605 1.599 1.538 0 1.192-.947 1.916-2.217 1.916h-3.505a.39.39 0 01-.393-.396"
                ></path>
              </g>
              <g transform="translate(523.701 56.93)">
                <path
                  fill="#000"
                  fillOpacity="1"
                  fillRule="nonzero"
                  stroke="none"
                  strokeOpacity="1"
                  d="M0 0c.74 0 1.097-.415 1.097-1.435 0-1.019-.357-1.44-1.097-1.44s-1.096.421-1.096 1.44C-1.096-.415-.74 0 0 0m0-3.834c1.644 0 2.566.812 2.566 2.399C2.566.156 1.644.958 0 .958c-1.643 0-2.566-.802-2.566-2.393 0-1.587.923-2.399 2.566-2.399"
                ></path>
              </g>
              <g transform="translate(529.007 53.095)">
                <path
                  fill="#000"
                  fillOpacity="1"
                  fillRule="nonzero"
                  stroke="none"
                  strokeOpacity="1"
                  d="M0 0c1.496 0 2.401.482 2.401 1.468a.255.255 0 01-.26.258h-.636c-.218 0-.364-.121-.486-.31-.149-.234-.47-.398-.915-.398-.869 0-1.156.424-1.156 1.373 0 .959.287 1.381 1.114 1.381.443 0 .765-.163.913-.396.121-.19.269-.311.487-.311h.635c.147 0 .26.112.26.259 0 .985-.905 1.468-2.401 1.468-1.6 0-2.521-.812-2.521-2.401C-2.565.812-1.651 0 0 0"
                ></path>
              </g>
              <g transform="translate(532.016 53.181)">
                <path
                  fill="#000"
                  fillOpacity="1"
                  fillRule="nonzero"
                  stroke="none"
                  strokeOpacity="1"
                  d="M0 0h.948c.148 0 .261.112.261.26v2.822c.312.312.713.606 1.14.606.478 0 .808-.294.808-1.011V.26c0-.148.114-.26.261-.26h.948c.149 0 .261.112.261.26v2.417c0 1.434-.8 2.029-1.931 2.029-.651 0-1.087-.276-1.487-.614v1.694a.255.255 0 01-.261.259H0a.256.256 0 01-.26-.259V.26C-.26.112-.146 0 0 0"
                ></path>
              </g>
              <g transform="translate(539.557 56.93)">
                <path
                  fill="#000"
                  fillOpacity="1"
                  fillRule="nonzero"
                  stroke="none"
                  strokeOpacity="1"
                  d="M0 0c.646 0 .957-.346.983-.994H-.99C-.956-.346-.626 0 0 0m0-3.834c1.394 0 2.323.311 2.323 1.209a.256.256 0 01-.26.259h-.635a.602.602 0 01-.488-.225c-.147-.181-.469-.284-.835-.284-.713 0-1.026.302-1.086.993h3.2c.148 0 .261.111.261.258v.242C2.48.138 1.548.958 0 .958c-1.539 0-2.477-.846-2.477-2.4 0-1.563.931-2.392 2.477-2.392"
                ></path>
              </g>
              <g transform="translate(548.624 54.46)">
                <path
                  fill="#000"
                  fillOpacity="1"
                  fillRule="nonzero"
                  stroke="none"
                  strokeOpacity="1"
                  d="M0 0c0-.242-.244-.406-.974-.406-.375 0-.697.103-.844.285a.598.598 0 01-.487.225h-.635a.256.256 0 01-.262-.26c0-.898.905-1.208 2.331-1.208C.486-1.364 1.47-.975 1.47 0c0 1.762-3.21 1.348-3.21 2.064 0 .242.243.405.844.405.375 0 .696-.102.844-.284a.595.595 0 01.487-.226h.634c.147 0 .262.113.262.26 0 .897-.906 1.208-2.332 1.208-1.226 0-2.21-.388-2.21-1.363C-3.211.319 0 .716 0 0"
                ></path>
              </g>
              <g transform="translate(552.46 53.095)">
                <path
                  fill="#000"
                  fillOpacity="1"
                  fillRule="nonzero"
                  stroke="none"
                  strokeOpacity="1"
                  d="M0 0c.65 0 1.086.276 1.485.613V.346c0-.147.115-.26.262-.26h.948c.148 0 .26.113.26.26v4.101a.254.254 0 01-.26.258h-.948a.256.256 0 01-.262-.258V1.623c-.311-.312-.712-.605-1.138-.605-.479 0-.809.293-.809 1.011v2.418a.254.254 0 01-.261.258h-.95a.255.255 0 01-.26-.258V2.029C-1.933.595-1.132 0 0 0"
                ></path>
              </g>
              <g transform="translate(556.373 53.181)">
                <path
                  fill="#000"
                  fillOpacity="1"
                  fillRule="nonzero"
                  stroke="none"
                  strokeOpacity="1"
                  d="M0 0h.948c.15 0 .261.112.261.26v2.693c.314.371.661.622 1.097.622.226 0 .452-.025.651-.025h.141c.147 0 .26.111.26.258v.639a.256.256 0 01-.26.259c-.957 0-1.402-.259-1.889-.614v.269a.253.253 0 01-.261.258H0a.254.254 0 01-.26-.258V.26C-.26.112-.147 0 0 0"
                ></path>
              </g>
              <g transform="translate(543.5 54.857)">
                <path
                  fill="#000"
                  fillOpacity="1"
                  fillRule="nonzero"
                  stroke="none"
                  strokeOpacity="1"
                  d="M0 0h.73c.511 0 .803.161.803.445v.21c0 .284-.292.446-.803.446H0c-.511 0-.804-.162-.804-.446v-.21C-.804.161-.511 0 0 0"
                ></path>
              </g>
              <g transform="translate(559.54 55.512)">
                <path
                  fill="#000"
                  fillOpacity="1"
                  fillRule="nonzero"
                  stroke="none"
                  strokeOpacity="1"
                  d="M0 0v-.21c0-.284.292-.445.804-.445h.73c.512 0 .805.161.805.445V0c0 .284-.293.445-.805.445h-.73C.292.445 0 .284 0 0"
                ></path>
              </g>
              <g transform="translate(563.325 55.34)">
                <path
                  fill="#000"
                  fillOpacity="1"
                  fillRule="nonzero"
                  stroke="none"
                  strokeOpacity="1"
                  d="M0 0v-1.771c0-.215.183-.388.4-.388h.799c.22 0 .401.173.401.388V0l2.27 3.488c.131.198.069.398-.148.398h-.809a.85.85 0 01-.738-.398L.801 1.383-.573 3.488a.858.858 0 01-.739.398h-.809c-.22 0-.28-.2-.15-.398L0 0z"
                ></path>
              </g>
              <g transform="translate(568.96 54.053)">
                <path
                  fill="#000"
                  fillOpacity="1"
                  fillRule="nonzero"
                  stroke="none"
                  strokeOpacity="1"
                  d="M0 0c-.738 0-1.095.423-1.095 1.441 0 1.019.357 1.434 1.095 1.434.739 0 1.098-.415 1.098-1.434C1.098.423.739 0 0 0m0 3.833c-1.644 0-2.565-.802-2.565-2.392 0-1.587.921-2.4 2.565-2.4 1.645 0 2.566.813 2.566 2.4 0 1.59-.921 2.392-2.566 2.392"
                ></path>
              </g>
              <g transform="translate(574.92 57.887)">
                <path
                  fill="#000"
                  fillOpacity="1"
                  fillRule="nonzero"
                  stroke="none"
                  strokeOpacity="1"
                  d="M0 0c-.654 0-1.087-.276-1.488-.614v.269a.256.256 0 01-.261.259h-.948a.255.255 0 01-.26-.259v-4.101c0-.147.113-.26.26-.26h.948c.147 0 .261.113.261.26v2.822c.314.312.712.604 1.14.604.479 0 .81-.292.81-1.009v-2.417c0-.147.113-.26.258-.26h.95c.146 0 .26.113.26.26v2.417C1.93-.595 1.13 0 0 0"
                ></path>
              </g>
            </g>
          </g>
          <g fill="#a70004">
            <g
              fill="#a70004"
              fillOpacity="1"
              stroke="none"
              strokeOpacity="1"
              clipPath="url(#clipPath260)"
            >
              <g transform="translate(554.146 66.878)">
                <path
                  fill="#a70004"
                  fillOpacity="1"
                  fillRule="nonzero"
                  stroke="none"
                  strokeOpacity="1"
                  d="M0 0c-.152-.125-.379-.234-.653-.314a.404.404 0 00-.451.131c-.502.575-.499.79.028 1.449.424.534.819 1.005 1.372 1.352a1.664 1.664 0 001.063.268c.015-.002.041-.021.071-.059.101-.137.16-.437.072-.764C1.359 1.213.661.544 0 0m3.911-3.738a.65.65 0 01-.468.384 2.85 2.85 0 01-.857.018c-.759-.108-1.412-.095-2.042.043-.948.208-1.588.668-1.954 1.405-.07.141-.115.3-.163.482.126-.039.233-.072.349-.094.083-.014.177-.021.273-.021.801 0 2.051.542 2.465 1.242.085.143.178.285.271.425.25.381.509.775.648 1.251.172.602.3 1.316-.06 2.044-.079.16-.24.308-.483.439-.425.232-.956.24-1.546.022a5.69 5.69 0 01-1.622-.924c-.298-.246-.51-.573-.713-.889-.069-.106-.139-.214-.21-.317-.647-.923-.894-1.715-.803-2.567.017-.157-.15-.408-.215-.502-.112-.168-.239-.328-.365-.489-.19-.241-.389-.492-.54-.771-.243-.451-.629-.772-1.009-1.05-.33-.246-.795-.37-1.242-.479-.105-.026-.348.048-.495.155-.54.388-.606.99-.675 1.628l-.008.071c-.039.359.014.745.066 1.117l.036.287c.029.22.055.438.08.657.086.743.174 1.508.326 2.247.124.614.316 1.234.504 1.83.074.24.148.475.219.713.069.239.144.477.22.714.151.473.304.959.415 1.451.041.178.097.355.158.54.151.457.306.93.185 1.462-.01.04-.099.394-.352.446a.722.722 0 01-.575-.169c-.143-.13-.213-.308-.281-.478a7.37 7.37 0 01-.156-.439 4.188 4.188 0 00-.3-.741c-.304-.545-.427-1.128-.545-1.692-.06-.287-.123-.587-.209-.869a6.881 6.881 0 01-.2-1.026 12.383 12.383 0 00-.078-.512c-.065-.357-.134-.71-.201-1.067A64.212 64.212 0 01-8.625.094c-.201-1.301-.563-2.217-1.177-2.971a11.193 11.193 0 00-.664-.748.5.5 0 00-.352-.155c-.124 0-.272.058-.312.224-.091.383-.191.834-.243 1.285a2.28 2.28 0 00.017.484c.01.101.021.201.025.302.005.131.005.262.005.395-.002.249-.002.483.035.71.075.473.171.95.265 1.411.067.336.135.671.195 1.008.061.332.111.665.163.998.052.347.105.692.167 1.034.055.299.121.596.188.895.117.523.235 1.066.292 1.611.066.664.256 1.279.459 1.931l.124.401c.125.421.18.85.218 1.212.024.208-.231.464-.428.489l-.049.003c-.179 0-.465-.118-.532-.307-.27-.746-.467-1.36-.622-1.928a19.33 19.33 0 01-.299-1.35l-.236-1.156a80.26 80.26 0 01-.456-2.314c-.269-1.526-.472-2.79-.637-3.975-.147-1.037-.242-2.263.148-3.488.197-.618.639-.988 1.276-1.071.618-.08 1.194.183 1.507.695.04.064.068.139.089.206.015.042.037.103.026.103.323.145.425.404.51.611.025.058.047.117.076.173.047.092.103.182.164.273.037-.114.067-.234.089-.366.106-.574.387-1.102.862-1.614.286-.305.701-.475 1.17-.475.338 0 .691.086 1.052.25.744.341 1.269.734 1.649 1.237.069.092.141.184.213.274.197.251.401.508.563.793.129.225.309.376.518.513.688-1.382 1.861-2.15 3.491-2.283.561-.046 1.163.002 1.652.049.354.035.695.15 1.012.265.173.063.391.332.323.534"
                ></path>
              </g>
              <g transform="translate(517.256 71.167)">
                <path
                  fill="#a70004"
                  fillOpacity="1"
                  fillRule="nonzero"
                  stroke="none"
                  strokeOpacity="1"
                  d="M0 0c-.195-.43-.392-.85-.629-1.236-.331-.538-.693-1.113-1.11-1.648a25.635 25.635 0 00-1.193-1.377l-.307-.341a1.262 1.262 0 00-.163-.136l.005.107c.017.275.032.534.097.779l.08.3c.285 1.051.575 2.138.952 3.173.157.429.389.847.614 1.25.173.31.349.627.498.955.5 1.111 1.213 2.11 1.897 3.039.291.394.663.822 1.212 1.024.029.008.051.016.07.022l-.003-.015-.063-.32a10.882 10.882 0 00-.291-1.259 40.274 40.274 0 00-.877-2.466A34.959 34.959 0 000 0m1.931-6.64l.219.29c.244.319.493.648.761.947l.062.066c.457.512.93 1.039 1.463 1.474.579.47 1.245.873 1.888 1.262l.062.037c.065.04.127.061.172.061.102 0 .147-.162.162-.233.125-.609.042-1.246-.26-2.007a7.555 7.555 0 00-.161-.371 6.167 6.167 0 01-.194-.453c-.054-.148-.169-.206-.365-.299-.049-.024-.1-.047-.15-.074a12.209 12.209 0 01-.848-.511c-.225-.146-.453-.29-.685-.421-.396-.224-.82-.451-1.254-.588-.204-.062-.517-.05-.817.001-.035.026-.107.162-.134.29-.012.059.013.148.04.235.014.055.032.11.043.163l.021.113-.025.018zm5.945-1.219c-.264-.03-.448.035-.681.242-.27.244-.335.567-.401.911l-.026.134a.496.496 0 00.056.313c.658 1.036.957 2.229.887 3.543-.054 1.029-.641 1.182-.984 1.182-.115 0-.239-.017-.369-.047a5.11 5.11 0 01-1.585-.696c-.627-.419-1.349-.945-1.937-1.651a18.577 18.577 0 00-.716-.794c-.314-.335-.641-.68-.925-1.051a2.345 2.345 0 01-.447-1.245C.73-7.385.676-7.651.453-7.852l-.142-.129c-.32-.295-.651-.598-1.023-.782-.49-.241-1.058-.208-1.448.096-.995.773-1.399 1.663-1.234 2.721.011.065.059.15.122.213.113.113.233.219.353.327.202.18.411.368.588.582.325.394.641.805.943 1.204.302.392.603.785.916 1.17C.263-1.555.723-.518 1.178.508c.193.435.361.888.525 1.325.089.242.18.485.276.727.42 1.071.844 2.218.999 3.43.04.319-.033.586-.209.777-.212.224-.549.305-.935.217-.08-.018-.149-.051-.212-.079l-.052-.023C.703 6.509.156 5.825-.289 5.216l-.082-.115c-.722-.991-1.467-2.014-1.952-3.171a8.464 8.464 0 00-.29-.603c-.074-.139-.154-.276-.234-.414-.167-.284-.34-.58-.447-.897-.339-1.009-.724-2.203-1.01-3.404-.11-.465-.142-.946-.174-1.411a12.959 12.959 0 00-.065-.768c-.014-.121-.067-.247-.123-.289a26.442 26.442 0 00-1.393-1.017c-.48-.195-1.026-.297-1.545-.378-.202-.03-.472-.019-.73-.002-.121.01-.239.018-.358.02l-.162-.026-.117-.355.091-.081c.02-.018.036-.036.056-.057a.57.57 0 01.25-.18c.22-.069.478-.142.744-.163 1.12-.084 2.147.268 3.081 1.043l.087.088.146.105c.207-1.046.711-1.87 1.539-2.518a2.765 2.765 0 011.665-.576c.451 0 .875.122 1.227.35.35.228.664.48.998.746l.331.261a1.999 1.999 0 011.079-.287c.402 0 .806.089 1.181.186.723.184 1.427.552 2.151 1.124.031.025.053.037.061.045a.628.628 0 00.045-.073c.012-.028.022-.056.033-.086a.939.939 0 01.063-.148c.298-.544.707-1.101 1.471-1.101.242 0 .505.055.803.168.154.059.341.149.411.322a.374.374 0 01-.019.327c-.109.218-.472.278-.647.26"
                ></path>
              </g>
            </g>
          </g>
          <g fill="#a70004">
            <g
              fill="#a70004"
              fillOpacity="1"
              stroke="none"
              strokeOpacity="1"
              clipPath="url(#clipPath276)"
            >
              <g transform="translate(539.846 63.015)">
                <path
                  fill="#a70004"
                  fillOpacity="1"
                  fillRule="nonzero"
                  stroke="none"
                  strokeOpacity="1"
                  d="M0 0l-.007.234-.355-.063a2.224 2.224 0 01-.303-.06A.549.549 0 01-.85.007a.38.38 0 00-.129-.068.406.406 0 00-.013.075 2.858 2.858 0 01-.06.298 1.867 1.867 0 00-.052.262c-.071.677-.125 1.461.152 2.207l.011.047c.014.147.035.291.054.436.048.346.096.705.072 1.063-.029.446-.232.872-.399 1.154a1.05 1.05 0 01-.902.486.999.999 0 01-.586-.182l-.159-.115c-.745-.532-1.515-1.083-2.19-1.715-.498-.465-.952-.979-1.394-1.477a34.433 34.433 0 00-.81-.896c-.239-.252-.53-.5-.89-.76-.127-.092-.189-.119-.228.027a6.927 6.927 0 00-.239 1.158c-.046.432-.065.876-.083 1.307-.006.169-.015.34-.023.509-.021.405-.041.806-.056 1.21-.005.14-.007.279-.01.419-.004.275-.008.557-.039.838a.818.818 0 01-.342.549.409.409 0 01-.231.06c-.117 0-.367-.041-.463-.191-.128-.195-.151-.447-.149-.622.007-.481.021-.964.033-1.445.022-.72.04-1.464.04-2.194 0-.852.292-1.621.576-2.366.152-.396.558-.709.925-.709.071 0 .14.012.22.041.215.078.46.166.648.323.374.311.712.649 1.039.974l.394.385c.41.401.836.816 1.213 1.262.085.1.169.204.252.305.372.453.724.882 1.21 1.203.194.128.376.274.551.413.129.102.256.205.39.301a.484.484 0 00.25.106c.143 0 .184-.209.194-.302a.665.665 0 00.005-.196 62.475 62.475 0 00-.242-1.361c-.183-.932-.163-1.916.064-3.186.101-.572.474-.9 1.02-.9.143 0 .294.023.455.066.333.087.482.302.6.476.039.054.076.111.119.159.114.125.088.297.066.434A.81.81 0 000 0"
                ></path>
              </g>
              <g transform="translate(538.83 70.464)">
                <path
                  fill="#a70004"
                  fillOpacity="1"
                  fillRule="nonzero"
                  stroke="none"
                  strokeOpacity="1"
                  d="M0 0l.344-.101-.076.333C.226.413.19.585.154.752c-.084.405-.164.787-.293 1.151-.095.272-.568.426-.808.393-.329-.046-.513-.54-.533-.597-.036-.102.006-.203.054-.29C-1.225 1.04-.405.118 0 0"
                ></path>
              </g>
            </g>
          </g>
        </g>
      </g>
    </svg>